<mxfile host="app.diagrams.net" modified="2022-07-18T06:29:49.991Z" agent="5.0 (Windows NT 10.0; Win64; x64) AppleWebKit/537.36 (KHTML, like Gecko) Chrome/101.0.0.0 Safari/537.36" etag="Vvl8b1J0rj7t5-YGnInL" version="20.1.1" type="github">
  <diagram id="3bTlCvezNanHYBezA9TU" name="第 1 页">
    <mxGraphModel dx="266" dy="391" grid="0" gridSize="10" guides="1" tooltips="1" connect="1" arrows="1" fold="1" page="1" pageScale="1" pageWidth="827" pageHeight="1169" math="0" shadow="0">
      <root>
        <mxCell id="0" />
        <mxCell id="1" parent="0" />
        <mxCell id="ABmc3wEKmiOW-v7mlXBN-4" style="edgeStyle=orthogonalEdgeStyle;rounded=0;orthogonalLoop=1;jettySize=auto;html=1;entryX=0;entryY=0.5;entryDx=0;entryDy=0;" edge="1" parent="1" source="ABmc3wEKmiOW-v7mlXBN-1" target="ABmc3wEKmiOW-v7mlXBN-2">
          <mxGeometry relative="1" as="geometry" />
        </mxCell>
        <mxCell id="ABmc3wEKmiOW-v7mlXBN-1" value="真实的人，租房的人" style="rounded=0;whiteSpace=wrap;html=1;" vertex="1" parent="1">
          <mxGeometry x="100" y="170" width="120" height="60" as="geometry" />
        </mxCell>
        <mxCell id="ABmc3wEKmiOW-v7mlXBN-5" style="edgeStyle=orthogonalEdgeStyle;rounded=0;orthogonalLoop=1;jettySize=auto;html=1;entryX=0;entryY=0.5;entryDx=0;entryDy=0;dashed=1;" edge="1" parent="1" source="ABmc3wEKmiOW-v7mlXBN-2" target="ABmc3wEKmiOW-v7mlXBN-3">
          <mxGeometry relative="1" as="geometry" />
        </mxCell>
        <mxCell id="ABmc3wEKmiOW-v7mlXBN-7" style="edgeStyle=orthogonalEdgeStyle;rounded=0;orthogonalLoop=1;jettySize=auto;html=1;entryX=0.5;entryY=1;entryDx=0;entryDy=0;" edge="1" parent="1" source="ABmc3wEKmiOW-v7mlXBN-2" target="ABmc3wEKmiOW-v7mlXBN-6">
          <mxGeometry relative="1" as="geometry" />
        </mxCell>
        <mxCell id="ABmc3wEKmiOW-v7mlXBN-2" value="代理角色&lt;br&gt;中介" style="rounded=0;whiteSpace=wrap;html=1;" vertex="1" parent="1">
          <mxGeometry x="320" y="170" width="120" height="60" as="geometry" />
        </mxCell>
        <mxCell id="ABmc3wEKmiOW-v7mlXBN-8" style="edgeStyle=orthogonalEdgeStyle;rounded=0;orthogonalLoop=1;jettySize=auto;html=1;entryX=0.5;entryY=1;entryDx=0;entryDy=0;" edge="1" parent="1" source="ABmc3wEKmiOW-v7mlXBN-3" target="ABmc3wEKmiOW-v7mlXBN-6">
          <mxGeometry relative="1" as="geometry" />
        </mxCell>
        <mxCell id="ABmc3wEKmiOW-v7mlXBN-3" value="真是的角色&lt;br&gt;房东" style="rounded=0;whiteSpace=wrap;html=1;" vertex="1" parent="1">
          <mxGeometry x="530" y="170" width="120" height="60" as="geometry" />
        </mxCell>
        <mxCell id="ABmc3wEKmiOW-v7mlXBN-6" value="租房" style="rounded=0;whiteSpace=wrap;html=1;" vertex="1" parent="1">
          <mxGeometry x="430" width="120" height="60" as="geometry" />
        </mxCell>
        <mxCell id="ABmc3wEKmiOW-v7mlXBN-9" style="edgeStyle=orthogonalEdgeStyle;rounded=0;orthogonalLoop=1;jettySize=auto;html=1;entryX=0;entryY=0.5;entryDx=0;entryDy=0;" edge="1" source="ABmc3wEKmiOW-v7mlXBN-10" target="ABmc3wEKmiOW-v7mlXBN-13" parent="1">
          <mxGeometry relative="1" as="geometry" />
        </mxCell>
        <mxCell id="ABmc3wEKmiOW-v7mlXBN-10" value="我" style="rounded=0;whiteSpace=wrap;html=1;" vertex="1" parent="1">
          <mxGeometry x="105" y="490" width="120" height="60" as="geometry" />
        </mxCell>
        <mxCell id="ABmc3wEKmiOW-v7mlXBN-11" style="edgeStyle=orthogonalEdgeStyle;rounded=0;orthogonalLoop=1;jettySize=auto;html=1;entryX=0;entryY=0.5;entryDx=0;entryDy=0;dashed=1;" edge="1" source="ABmc3wEKmiOW-v7mlXBN-13" target="ABmc3wEKmiOW-v7mlXBN-15" parent="1">
          <mxGeometry relative="1" as="geometry" />
        </mxCell>
        <mxCell id="ABmc3wEKmiOW-v7mlXBN-12" style="edgeStyle=orthogonalEdgeStyle;rounded=0;orthogonalLoop=1;jettySize=auto;html=1;entryX=0.5;entryY=1;entryDx=0;entryDy=0;" edge="1" source="ABmc3wEKmiOW-v7mlXBN-13" target="ABmc3wEKmiOW-v7mlXBN-16" parent="1">
          <mxGeometry relative="1" as="geometry" />
        </mxCell>
        <mxCell id="ABmc3wEKmiOW-v7mlXBN-13" value="代理角色&lt;br&gt;结婚办理的公司" style="rounded=0;whiteSpace=wrap;html=1;" vertex="1" parent="1">
          <mxGeometry x="325" y="490" width="120" height="60" as="geometry" />
        </mxCell>
        <mxCell id="ABmc3wEKmiOW-v7mlXBN-14" style="edgeStyle=orthogonalEdgeStyle;rounded=0;orthogonalLoop=1;jettySize=auto;html=1;entryX=0.5;entryY=1;entryDx=0;entryDy=0;" edge="1" source="ABmc3wEKmiOW-v7mlXBN-15" target="ABmc3wEKmiOW-v7mlXBN-16" parent="1">
          <mxGeometry relative="1" as="geometry" />
        </mxCell>
        <mxCell id="ABmc3wEKmiOW-v7mlXBN-15" value="结婚" style="rounded=0;whiteSpace=wrap;html=1;" vertex="1" parent="1">
          <mxGeometry x="535" y="490" width="120" height="60" as="geometry" />
        </mxCell>
        <mxCell id="ABmc3wEKmiOW-v7mlXBN-16" value="结婚" style="rounded=0;whiteSpace=wrap;html=1;" vertex="1" parent="1">
          <mxGeometry x="435" y="320" width="120" height="60" as="geometry" />
        </mxCell>
      </root>
    </mxGraphModel>
  </diagram>
</mxfile>
